<?xml version="1.0" standalone="no"?>
<!DOCTYPE svg PUBLIC "-//W3C//DTD SVG 20010904//EN"
 "http://www.w3.org/TR/2001/REC-SVG-20010904/DTD/svg10.dtd">
<svg version="1.0" xmlns="http://www.w3.org/2000/svg"
 width="249.000000pt" height="249.000000pt" viewBox="0 0 249.000000 249.000000"
 preserveAspectRatio="xMidYMid meet">
<metadata>
Created by potrace 1.11, written by Peter Selinger 2001-2013
</metadata>
<g transform="translate(0.000000,249.000000) scale(0.100000,-0.100000)"
fill="#000000" stroke="none">
<path d="M2305 2483 c-141 -31 -359 -105 -482 -163 -266 -125 -456 -319 -554
-562 -12 -32 -26 -58 -30 -58 -4 0 -10 15 -13 33 -12 62 -93 215 -156 290 -12
16 -63 65 -134 133 -6 5 -38 28 -71 50 -205 138 -444 233 -674 269 -40 7 -43
6 -37 -11 4 -11 37 -98 73 -194 78 -212 121 -329 161 -435 27 -73 100 -272
187 -510 60 -164 352 -957 420 -1143 l68 -182 186 2 185 3 28 75 c15 41 76
210 136 375 61 165 165 451 232 635 67 184 171 470 232 635 60 165 130 356
155 425 25 69 49 134 54 145 23 55 68 195 61 194 -4 -1 -16 -3 -27 -6z"/>
</g>
</svg>
